<svg width="24" height="24" viewBox="0 0 24 24" fill="none" xmlns="http://www.w3.org/2000/svg">
<g opacity="0.64">
<g clip-path="url(#clip0_707_826)">
<path d="M9.49986 1.09094H2.68167C1.80443 1.09094 1.09082 1.80455 1.09082 2.6818V6.77271C1.09082 7.65011 1.80443 8.36373 2.68167 8.36373H9.49986C10.3773 8.36373 11.0909 7.65011 11.0909 6.77271V2.6818C11.0909 1.80455 10.3773 1.09094 9.49986 1.09094Z" fill="#151F4E" fill-opacity="0.56"/>
<path d="M9.49998 10.1818H2.6818C1.80455 10.1818 1.09094 10.8954 1.09094 11.7728V21.3182C1.09094 22.1955 1.80455 22.9091 2.6818 22.9091H9.49998C10.3774 22.9091 11.091 22.1955 11.091 21.3182V11.7728C11.091 10.8954 10.3774 10.1818 9.49998 10.1818V10.1818Z" fill="#151F4E" fill-opacity="0.56"/>
<path d="M21.318 15.6362H14.4998C13.6224 15.6362 12.9088 16.3498 12.9088 17.2273V21.3182C12.9088 22.1954 13.6224 22.909 14.4998 22.909H21.318C22.1953 22.909 22.9089 22.1954 22.9089 21.3182V17.2273C22.9089 16.3498 22.1953 15.6362 21.318 15.6362V15.6362Z" fill="#151F4E" fill-opacity="0.56"/>
<path d="M21.318 1.09094H14.4998C13.6224 1.09094 12.9088 1.80455 12.9088 2.6818V12.2273C12.9088 13.1047 13.6224 13.8183 14.4998 13.8183H21.318C22.1953 13.8183 22.9089 13.1047 22.9089 12.2273V2.6818C22.9089 1.80455 22.1953 1.09094 21.318 1.09094V1.09094Z" fill="#151F4E" fill-opacity="0.56"/>
</g>
</g>
<defs>
<clipPath id="clip0_707_826">
<rect width="21.8182" height="21.8182" fill="white" transform="translate(1.09082 1.09094)"/>
</clipPath>
</defs>
</svg>
