<svg width="40" height="40" viewBox="0 0 40 40" fill="none" xmlns="http://www.w3.org/2000/svg">
<g opacity="0.72">
<rect width="40" height="40" rx="20" fill="white"/>
<path d="M28.8334 20L29.38 20.4372L29.7298 20L29.38 19.5627L28.8334 20ZM21.3334 19.3C20.9468 19.3 20.6334 19.6134 20.6334 20C20.6334 20.3866 20.9468 20.7 21.3334 20.7V19.3ZM26.0466 24.6039L29.38 20.4372L28.2868 19.5627L24.9534 23.7293L26.0466 24.6039ZM29.38 19.5627L26.0466 15.396L24.9534 16.2706L28.2868 20.4372L29.38 19.5627ZM28.8334 19.3H21.3334V20.7H28.8334V19.3Z" fill="#4B516A"/>
<path d="M22.1666 23.2234V23.3861C22.1666 24.8989 22.1666 25.6554 21.749 26.1956C21.7125 26.2429 21.6739 26.2884 21.6333 26.3322C21.169 26.833 20.4229 26.9573 18.9306 27.206V27.206C15.9012 27.7109 14.3865 27.9634 13.3569 27.1847C13.2687 27.118 13.1843 27.0465 13.104 26.9705C12.1666 26.0829 12.1666 24.5473 12.1666 21.4761L12.1666 18.524C12.1666 15.4528 12.1666 13.9172 13.104 13.0296C13.1843 12.9536 13.2687 12.8821 13.3569 12.8154C14.3865 12.0367 15.9017 12.2892 18.9321 12.7943V12.7943C20.4227 13.0427 21.168 13.1669 21.632 13.6665C21.6735 13.7112 21.7129 13.7577 21.7501 13.8059C22.1666 14.3458 22.1666 15.1011 22.1666 16.6117V16.6117" stroke="#4B516A" stroke-width="1.4" stroke-linejoin="round"/>
</g>
</svg>
